<?xml version="1.0" standalone="no"?>
<!DOCTYPE svg PUBLIC "-//W3C//DTD SVG 20010904//EN"
 "http://www.w3.org/TR/2001/REC-SVG-20010904/DTD/svg10.dtd">
<svg version="1.0" xmlns="http://www.w3.org/2000/svg"
 width="512.000000pt" height="512.000000pt" viewBox="0 0 512.000000 512.000000"
 preserveAspectRatio="xMidYMid meet">
<metadata>
Created by potrace 1.14, written by Peter Selinger 2001-2017
</metadata>
<g transform="translate(0.000000,512.000000) scale(0.100000,-0.100000)"
fill="#000000" stroke="none">
<path d="M2668 5035 c-2 -2 -16 -5 -33 -8 -30 -4 -70 -17 -115 -40 -14 -6 -52
-39 -86 -72 -100 -101 -154 -240 -160 -410 -8 -241 101 -457 272 -541 52 -25
70 -29 149 -29 83 0 95 2 153 34 107 58 180 153 234 303 20 54 23 82 23 203 0
160 -18 238 -81 345 -62 105 -173 193 -261 205 -15 2 -42 6 -60 9 -17 2 -33 3
-35 1z"/>
<path d="M3747 5028 c-91 -19 -178 -81 -241 -173 -82 -118 -112 -225 -110
-395 3 -217 114 -419 271 -497 51 -25 69 -28 148 -28 79 1 97 4 148 30 306
153 366 692 106 955 -89 90 -213 132 -322 108z"/>
<path d="M1625 4201 c-109 -28 -209 -141 -230 -261 -43 -235 101 -518 318
-625 86 -42 104 -47 183 -46 117 0 224 64 276 164 131 255 -42 649 -332 754
-57 21 -161 28 -215 14z"/>
<path d="M4674 4192 c-157 -55 -295 -204 -358 -387 -24 -69 -32 -221 -16 -282
30 -109 85 -180 173 -222 75 -36 130 -43 212 -26 138 29 256 120 342 264 68
113 93 211 89 337 -5 126 -58 225 -155 290 -48 31 -69 37 -161 41 -54 2 -89
-2 -126 -15z"/>
<path d="M3179 3799 c-77 -17 -152 -63 -330 -204 -101 -81 -202 -161 -224
-179 -22 -19 -87 -71 -145 -117 -150 -119 -195 -169 -248 -274 -124 -246 -99
-553 63 -780 178 -250 457 -306 777 -156 166 78 192 77 403 -17 150 -66 288
-83 415 -51 201 51 357 211 429 440 68 216 31 466 -97 651 -42 61 -109 121
-352 313 -118 93 -244 194 -280 224 -158 132 -282 177 -411 150z"/>
<path d="M103 1795 c-79 -34 -103 -86 -103 -219 0 -113 10 -140 61 -163 l38
-18 1 -122 0 -121 -31 -7 c-41 -9 -72 -58 -65 -105 6 -37 54 -90 81 -90 12 0
15 -21 15 -124 l0 -124 -29 -7 c-56 -12 -66 -35 -68 -162 -1 -82 2 -123 12
-142 19 -36 64 -76 100 -88 18 -6 266 -9 640 -9 559 1 613 3 645 19 42 21 79
72 87 121 l6 37 113 -2 c62 -1 132 -7 156 -15 24 -7 187 -52 363 -99 433 -115
640 -171 767 -206 60 -17 116 -32 125 -34 10 -1 38 -8 63 -15 66 -18 214 -16
290 4 85 22 209 81 296 142 108 76 266 187 464 329 100 72 191 137 203 145 27
18 360 255 477 339 115 83 132 98 169 152 66 94 85 211 52 316 -29 90 -132
188 -224 214 -56 16 -178 15 -219 -1 -42 -17 -190 -90 -383 -190 -82 -43 -216
-112 -297 -153 l-146 -75 -35 29 c-40 33 -116 68 -161 74 -17 2 -162 4 -323 4
l-291 1 -80 69 c-282 243 -559 329 -853 265 -13 -3 -35 -7 -49 -10 -39 -8
-137 -39 -230 -73 -65 -24 -104 -32 -167 -34 l-81 -2 -6 29 c-10 50 -47 97
-90 117 -39 17 -77 19 -651 18 -502 0 -616 -2 -642 -14z"/>
</g>
</svg>
